<?xml version="1.0" standalone="no"?>
<!DOCTYPE svg PUBLIC "-//W3C//DTD SVG 20010904//EN"
 "http://www.w3.org/TR/2001/REC-SVG-20010904/DTD/svg10.dtd">
<svg version="1.0" xmlns="http://www.w3.org/2000/svg"
 width="512.000000pt" height="512.000000pt" viewBox="0 0 512.000000 512.000000"
 preserveAspectRatio="xMidYMid meet">
<metadata>
Created by potrace 1.11, written by Peter Selinger 2001-2013
</metadata>
<g transform="translate(0.000000,512.000000) scale(0.100000,-0.100000)"
fill="#000000" stroke="none">
<path d="M2345 5114 c-16 -2 -70 -9 -120 -15 -369 -45 -758 -190 -1079 -403
-153 -102 -261 -191 -396 -326 -402 -402 -644 -890 -732 -1475 -18 -121 -18
-549 0 -670 61 -405 194 -760 406 -1079 102 -153 191 -261 326 -396 402 -402
890 -644 1475 -732 121 -18 549 -18 670 0 585 88 1080 334 1480 736 399 401
640 889 727 1471 18 121 18 549 0 670 -61 405 -194 760 -406 1079 -102 153
-191 261 -326 396 -394 394 -870 634 -1437 726 -93 15 -516 28 -588 18z m1100
-892 c56 -13 137 -40 184 -63 160 -76 278 -230 332 -434 31 -116 31 -335 1
-458 -88 -357 -339 -572 -760 -653 l-91 -18 58 -61 c139 -149 315 -482 521
-987 l69 -168 -318 0 -318 0 -33 93 c-89 256 -285 719 -352 831 -136 227 -217
266 -556 266 l-147 0 -114 -553 c-63 -303 -119 -571 -124 -594 l-9 -43 -297 0
-297 0 298 1428 c163 785 298 1431 298 1435 0 4 350 6 778 4 759 -3 779 -4
877 -25z"/>
<path d="M2285 3758 c-6 -17 -155 -736 -155 -748 0 -13 377 -13 590 0 273 16
378 44 487 126 63 48 105 99 146 179 30 56 32 67 32 166 0 100 -2 108 -30 154
-35 57 -98 100 -170 116 -31 7 -214 13 -472 16 -348 4 -424 2 -428 -9z"/>
</g>
</svg>
